<svg width="33" height="33" viewBox="0 0 33 33" fill="none" xmlns="http://www.w3.org/2000/svg">
<path d="M11.2174 8.93843C10.1393 9.81146 9.26915 10.9192 8.67141 12.1796C8.07365 13.44 7.76368 14.8206 7.7645 16.2189C7.7688 19.6291 6.99491 22.9942 5.50329 26.0512M18.3684 31.3504C20.572 26.6195 22.0214 18.3561 21.6962 16.2189C21.2939 13.5756 20.0273 11.4633 16.9725 11.4633C13.4722 11.4633 12.4056 15.0199 12.4056 16.5309M30.4908 25.1716C31.0607 22.2223 31.3484 19.2242 31.3499 16.2189C31.3499 12.3551 29.8351 8.6495 27.1387 5.91739C24.4423 3.18528 20.7853 1.65039 16.972 1.65039C13.1587 1.65039 9.50162 3.18528 6.80523 5.91739C4.10884 8.6495 2.59403 12.355 2.59403 16.2188C2.59554 18.1349 2.27634 20.0375 1.65002 21.8455M9.02832 29.2035C10.4857 26.6696 11.522 23.9101 12.0957 21.0355M25.871 21.3156C26.0797 19.6254 26.1829 17.9219 26.1795 16.2185C26.1795 13.7443 25.2093 11.3714 23.4827 9.6219C21.756 7.87241 19.4143 6.88936 16.9725 6.88936C16.5879 6.88668 16.2035 6.90895 15.8217 6.95603M24.9139 26.4104C24.6707 27.3469 24.3946 28.2846 24.1031 29.2035M13.4914 30.6578C15.3253 27.3452 16.9795 21.8562 16.9795 16.2696" stroke="white" stroke-width="2" stroke-linecap="round" stroke-linejoin="round"/>
</svg>
